# Blender 4.2.1 LTS
# www.blender.org
mtllib stop.mtl
o Stop
v 0.382683 -0.923880 0.000000
v 0.923880 -0.382683 0.000000
v 0.923880 -0.382683 0.100000
v 0.382683 -0.923880 0.100000
v -0.382683 -0.923880 0.000000
v -0.382683 -0.923880 0.100000
v -0.923880 -0.382683 0.000000
v -0.923880 -0.382683 0.100000
v -0.923880 0.382683 -0.000000
v -0.923880 0.382683 0.100000
v -0.382683 0.923880 -0.000000
v -0.382683 0.923880 0.100000
v 0.382683 0.923880 -0.000000
v 0.382683 0.923880 0.100000
v 0.923880 0.382683 -0.000000
v 0.923880 0.382683 0.100000
vn 0.7071 -0.7071 -0.0000
vn -0.0000 -1.0000 -0.0000
vn -0.7071 -0.7071 -0.0000
vn -1.0000 -0.0000 -0.0000
vn -0.7071 0.7071 -0.0000
vn -0.0000 1.0000 -0.0000
vn 0.7071 0.7071 -0.0000
vn 1.0000 -0.0000 -0.0000
vn -0.0000 -0.0000 1.0000
vn -0.0000 -0.0000 -1.0000
vt 0.967880 0.000000
vt 0.967880 0.173831
vt 0.935760 0.000000
vt 0.935760 0.173831
vt 1.000000 0.593495
vt 1.000000 0.839329
vt 0.967880 0.593495
vt 0.967880 0.839329
vt 1.000000 0.419664
vt 0.967880 0.419664
vt 0.967880 0.593495
vt 0.967880 0.839329
vt 0.935760 0.593495
vt 0.935760 0.839329
vt 1.000000 0.245833
vt 0.967880 0.245833
vt 1.000000 0.000000
vt 0.967880 0.000000
vt 0.967880 0.593495
vt 0.935760 0.419664
vt 0.440027 0.830553
vt 0.006441 0.831097
vt 0.439637 0.601824
vt 0.007663 0.600351
vt 0.311004 0.442860
vt 0.129026 0.442779
vt 0.312678 0.992352
vt 0.134125 0.991966
vt 0.522618 0.580220
vt 0.798722 0.000000
vt 0.604919 0.752835
vt 0.935760 0.220500
vt 0.798722 0.752835
vt 0.935760 0.532335
vt 0.535831 0.251625
vt 0.604919 0.000000
s 0
usemtl Material1
f 1/1/1 2/2/1 4/3/1
f 4/3/1 2/2/1 3/4/1
f 5/5/2 1/6/2 6/7/2
f 6/7/2 1/6/2 4/8/2
f 7/9/3 5/5/3 8/10/3
f 8/10/3 5/5/3 6/7/3
f 9/11/4 7/12/4 10/13/4
f 10/13/4 7/12/4 8/14/4
f 11/15/5 9/9/5 12/16/5
f 12/16/5 9/9/5 10/10/5
f 13/17/6 11/15/6 14/18/6
f 14/18/6 11/15/6 12/16/6
f 15/10/7 13/19/7 16/20/7
f 16/20/7 13/19/7 14/13/7
f 2/2/8 15/10/8 3/4/8
f 3/4/8 15/10/8 16/20/8
f 16/21/9 10/22/9 3/23/9
f 3/23/9 10/22/9 8/24/9
f 3/23/9 8/24/9 4/25/9
f 4/25/9 8/24/9 6/26/9
f 14/27/9 12/28/9 16/21/9
f 16/21/9 12/28/9 10/22/9
f 2/29/10 7/30/10 15/31/10
f 15/31/10 7/30/10 9/32/10
f 15/31/10 9/32/10 13/33/10
f 13/33/10 9/32/10 11/34/10
f 1/35/10 5/36/10 2/29/10
f 2/29/10 5/36/10 7/30/10
